<svg xmlns="http://www.w3.org/2000/svg" xmlns:xlink="http://www.w3.org/1999/xlink" id="Ebene_1" x="0px" y="0px" viewBox="0 0 521.618286 521.618286" style="enable-background:new 0 0 521.618286 521.618286;" xml:space="preserve"><path d="M515.618286,6v509.618286H6V6H515.618286 M521.618286,0H0v521.618286h521.618286V0L521.618286,0z"></path><path d="M380.345337,89.809578h7.372894c5.971344,0,10.568268,1.296799,13.786896,3.890327 c3.214722,2.597412,4.825958,6.592529,4.825958,11.993134c0,5.295769-1.537476,9.360794-4.616302,12.202789 c-3.074982,2.842018-7.353546,4.263016-12.831787,4.263016c-5.408356,0-9.818909-1.552986-13.231689-4.651268 c-3.41272-3.102127-5.117157-7.101158-5.117157-12.000885h-5.940277l-0.104828,0.318336 c-0.178589,6.821625,2.154785,12.152344,7.000214,15.988289c4.841522,3.835938,10.642029,5.753922,17.393738,5.753922 c6.965271,0,12.664825-1.960701,17.10257-5.885948c4.437714-3.925217,6.654633-9.314171,6.654633-16.174599 c0-4.453278-1.191925-8.316414-3.579681-11.585487c-2.383881-3.27298-5.982971-5.594734-10.789551-6.976929 c4.099945-1.552986,7.279755-3.929123,9.543274-7.132202c2.263519-3.199196,3.393311-6.619728,3.393311-10.261528 c0-6.716793-2.042206-11.965965-6.122742-15.747547c-4.084412-3.781586-9.57431-5.676285-16.46582-5.676285 c-6.716797,0-12.268829,1.999531-16.652191,5.994652s-6.487701,8.995804-6.309113,15.005985l0.104828,0.318367h5.940277 c0-4.771645,1.5802-8.615345,4.744446-11.535007c3.164276-2.915779,7.221527-4.37561,12.171753-4.37561 c5.373444,0,9.419037,1.43264,12.144562,4.297943c2.721649,2.861454,4.080536,6.701275,4.080536,11.507847 c0,4.41832-1.448181,8.032959-4.34845,10.84391c-2.896362,2.810951-7.159393,4.216423-12.777405,4.216423h-7.372894V89.809578z"></path><polygon points="339.067017,98.151611 339.067017,84.170624 182.06517,84.170624 182.06517,100.562675 315.604858,100.562675  177.728378,303.215332 177.728378,318.147552 344.207489,318.147552 344.207489,301.755524 200.7052,301.755524 "></polygon><g>	<path d="M410.181793,487.957489h2.018921v-24.494904h-2.018921V487.957489z M386.498352,486.299652v-10.482849h10.19165v-1.657837  h-10.19165v-9.042419h11.635925v-1.653961h-13.654846v24.494904h14.373138v-1.657837H386.498352z M361.172607,486.299652  v-22.837067h-2.018921v24.494904h14.373108v-1.657837H361.172607z M335.470245,486.299652v-10.482849h10.195526v-1.657837  h-10.195526v-9.042419h11.635925v-1.653961h-13.654846v24.494904h14.373138v-1.657837H335.470245z M318.864655,485.686218  c-1.587982,0.795898-3.843719,1.191925-6.775024,1.191925c-2.065491,0-3.828186-0.481445-5.295776-1.44043  c-1.463715-0.96286-2.574127-2.29068-3.331207-3.983459c-0.757111-1.69281-1.133698-3.606873-1.133698-5.746155  c0-2.112091,0.395996-4.002899,1.188049-5.672394c0.792023-1.669495,1.956787-2.985657,3.494263-3.944641  s3.397217-1.44043,5.583069-1.44043c1.34726,0,2.659576,0.267914,3.944702,0.811462  c1.285095,0.539673,2.310059,1.289001,3.082703,2.251862l1.366638-1.226868  c-0.986145-1.129822-2.209137-1.999512-3.672852-2.612946c-1.46759-0.609558-3.040009-0.91629-4.721191-0.91629  c-2.663391,0-4.923035,0.574615-6.771118,1.727722c-1.851959,1.153107-3.230255,2.698364-4.14267,4.627991  c-0.912384,1.933502-1.370514,4.053345-1.370514,6.359589c0,2.329529,0.438721,4.468781,1.316162,6.41394  s2.19754,3.50592,3.964081,4.682343c1.762665,1.176392,3.929108,1.762665,6.499359,1.762665  c1.945129,0,3.668976-0.186371,5.171539-0.555206c1.498657-0.372711,2.682831-0.858032,3.548645-1.459839v-9.764557h-1.94516  V485.686218z M278.785248,486.299652v-10.482849h10.195557v-1.657837h-10.195557v-9.042419h11.635956v-1.653961h-13.65097  v24.494904h14.373138v-1.657837H278.785248z M261.131378,487.957489h2.018951v-24.494904h-2.018951V487.957489z   M233.988602,486.299652l15.308807-21.43158v-1.405487h-17.362686v1.653961h15.095291l-15.561172,21.722778v1.118164h18.333313  v-1.657837H233.988602z M190.651764,486.299652v-10.482849h10.195526v-1.657837h-10.195526v-9.042419h11.635956v-1.653961  h-13.65097v24.494904h14.373123v-1.657837H190.651764z M177.684113,463.462585h-19.812576v1.653961h8.898773v22.840942h2.01503  v-22.840942h8.898773V463.462585z M140.318619,486.299652v-22.837067h-2.018921v24.494904h14.373154v-1.657837H140.318619z   M112.608986,477.870667l4.538681-11.853363l4.538673,11.853363H112.608986z M125.576653,487.957489h2.053856l-9.5821-24.821045  h-1.731606l-9.543266,24.821045h1.980095l3.241913-8.428986h10.33918L125.576653,487.957489z"></path>	<path d="M410.967255,420.230988v20.895782l-14.877869-20.895782h-1.657837v24.498779h2.018921v-20.787079l14.877869,20.822021  l1.657837-0.034943v-24.498779H410.967255z M377.713379,444.729767h2.01889v-24.494904h-2.01889V444.729767z   M349.491241,443.071899l15.308807-21.435455v-1.405457h-17.362671v1.657837h15.095276l-15.565094,21.722778v1.118164h18.337219  v-1.657867H349.491241z M332.163483,444.729767h2.018921v-24.494904h-2.018921V444.729767z M307.711273,443.071899h-5.90918  v-21.183075h5.90918c3.001221,0,5.326843,0.96286,6.969147,2.884705c1.64621,1.921875,2.469299,4.48822,2.469299,7.706848  c0,3.265198-0.82309,5.847076-2.469299,7.745636C313.038116,442.124573,310.712494,443.071899,307.711273,443.071899   M307.711273,420.230988h-7.924225v24.498779h7.924225c2.449921,0,4.530914-0.524139,6.250885-1.568542  c1.716095-1.044403,3.012848-2.488708,3.890289-4.340668c0.873566-1.848114,1.312317-3.975739,1.312317-6.375122  c0-2.329529-0.438751-4.418335-1.312317-6.270294c-0.877441-1.848083-2.174194-3.300171-3.890289-4.356201  C312.242188,420.762878,310.161194,420.230988,307.711273,420.230988 M275.020355,443.071899v-10.482819h10.195557v-1.657837  h-10.195557v-9.042419h11.635986v-1.657837h-13.654907v24.498779h14.373138v-1.657867H275.020355z M256.644348,420.230988  l-9.473404,13.402496l-9.473358-13.402496h-1.657852v24.498779h2.01503v-20.787079l8.537704,12.066895h1.153107l8.537689-12.066895  v20.787079h2.018921v-24.498779H256.644348z M219.321548,420.230988v20.895782l-14.877869-20.895782h-1.657822v24.498779h2.018921  v-20.787079l14.877853,20.822021l1.653946-0.034943v-24.498779H219.321548z M186.067673,420.230988v10.700256h-14.5168v-10.700256  h-2.018921v24.498779h2.018921v-12.140686h14.5168v12.140686h2.018921v-24.498779H186.067673z M142.758011,434.642944  l4.542572-11.853394l4.538666,11.853394H142.758011z M155.729568,444.729767h2.053848l-9.582092-24.821045h-1.731613  l-9.54715,24.821045h1.983978l3.241913-8.428986h10.339188L155.729568,444.729767z M110.490288,443.071899l15.308815-21.435455  v-1.405457h-17.362686v1.657837h15.095291l-15.561188,21.722778v1.118164h18.333321v-1.657867H110.490288z"></path>	<path d="M399.9133,378.660309h5.548126c1.848083,0,3.280762,0.438721,4.301849,1.316193  c1.021118,0.877441,1.5336,2.046082,1.5336,3.513672c0,1.607391-0.500854,2.81485-1.494751,3.61853  c-0.997833,0.80368-2.446014,1.207458-4.340698,1.207458H399.9133V378.660309z M413.098389,401.501251h2.302338  l-8.537689-11.709717c2.092682-0.213531,3.688416-0.885223,4.791046-2.015045  c1.106537-1.129822,1.657837-2.570221,1.657837-4.325134c0-1.222992-0.29895-2.321777-0.900757-3.296265  c-0.5979-0.970642-1.48703-1.73938-2.663391-2.302338c-1.180298-0.566864-2.6091-0.850281-4.286346-0.850281h-7.567047v24.498779  h2.018921v-11.527252h4.791046L413.098389,401.501251z M377.786743,373.403351c0.384369,0,0.722137-0.139771,1.00946-0.415436  s0.430969-0.594025,0.430969-0.955078c0-0.407684-0.139771-0.749359-0.415436-1.024994  c-0.275665-0.275665-0.61731-0.415436-1.024994-0.415436c-0.384369,0-0.714386,0.143646-0.990021,0.430969  c-0.275696,0.287292-0.415436,0.625092-0.415436,1.00946c0,0.361053,0.13974,0.679413,0.415436,0.955078  C377.072357,373.26358,377.402374,373.403351,377.786743,373.403351 M371.302917,373.403351  c0.384369,0,0.718262-0.139771,1.00943-0.415436c0.287354-0.275665,0.430969-0.594025,0.430969-0.955078  c0-0.407684-0.13974-0.749359-0.415405-1.024994c-0.275665-0.275665-0.61734-0.415436-1.024994-0.415436  c-0.384369,0-0.714386,0.143646-0.990051,0.430969c-0.275665,0.287292-0.415405,0.625092-0.415405,1.00946  c0,0.361053,0.13974,0.679413,0.415405,0.955078S370.918549,373.403351,371.302917,373.403351 M374.54483,402.114685  c1.99176,0,3.684509-0.41156,5.078339-1.226868c1.39386-0.815338,2.438232-1.94516,3.133209-3.385559  c0.698853-1.44043,1.044403-3.098267,1.044403-4.973541v-15.526245h-2.015045v15.565063  c0,2.426605-0.628967,4.340668-1.890778,5.746155s-3.043884,2.10434-5.350128,2.10434  c-2.329498,0-4.12326-0.698853-5.385071-2.10434s-1.890778-3.31955-1.890778-5.746155v-15.565063h-2.018951v15.600006  c0,1.848083,0.353333,3.490387,1.063812,4.919159c0.706635,1.428772,1.75882,2.550842,3.152649,3.36618  C370.856415,401.703125,372.549225,402.114685,374.54483,402.114685 M353.971283,378.660309v-1.657837h-13.65097v24.498779  h2.015015v-11.779602h10.195526v-1.657837h-10.195526v-9.403503H353.971283z M308.402008,377.002472l-9.473389,13.402496  l-9.473358-13.402496h-1.657867v24.498779h2.015045v-20.787079l8.537689,12.066925h1.153107l8.537689-12.066925v20.787079h2.018921  v-24.498779H308.402008z M264.447845,402.114685c1.99176,0,3.684509-0.41156,5.078339-1.226868  c1.39386-0.815338,2.438232-1.94516,3.133209-3.385559c0.698853-1.44043,1.044434-3.098267,1.044434-4.973541v-15.526245h-2.015076  v15.565063c0,2.426605-0.632843,4.340668-1.890778,5.746155c-1.26181,1.405487-3.043884,2.10434-5.350128,2.10434  c-2.329498,0-4.127136-0.698853-5.385071-2.10434c-1.26181-1.405487-1.894684-3.31955-1.894684-5.746155v-15.565063h-2.015015  v15.600006c0,1.848083,0.353302,3.490387,1.063782,4.919159c0.706635,1.428772,1.75882,2.550842,3.148773,3.36618  C260.75943,401.703125,262.45224,402.114685,264.447845,402.114685 M228.608185,378.660309h5.548141  c1.848068,0,3.280746,0.438721,4.301849,1.316193c1.021103,0.877441,1.533585,2.046082,1.533585,3.513672  c0,1.607391-0.500839,2.81485-1.494751,3.61853c-0.997818,0.80368-2.446014,1.207458-4.340683,1.207458h-5.548141V378.660309z   M241.793274,401.501251h2.302322l-8.537674-11.709717c2.092682-0.213531,3.688416-0.885223,4.791046-2.015045  c1.106537-1.129822,1.657852-2.570221,1.657852-4.325134c0-1.222992-0.298965-2.321777-0.900757-3.296265  c-0.597916-0.970642-1.48703-1.73938-2.663406-2.302338c-1.176422-0.566864-2.609085-0.850281-4.286331-0.850281h-7.567047  v24.498779h2.018906v-11.527252h4.791046L241.793274,401.501251z M214.918365,377.002472H195.10582v1.657837h8.898758v22.840942  h2.015045v-22.840942h8.898743V377.002472z M181.416,377.002472v20.895782l-14.877853-20.895782h-1.657852v24.498779h2.018921  v-20.787079l14.877869,20.822021l1.657837-0.034943v-24.498779H181.416z M140.474701,399.843384v-10.482819h10.195526v-1.657837  h-10.195526v-9.042419h11.635941v-1.657837h-13.65097v24.498779h14.373123v-1.657867H140.474701z M110.594734,399.843384  l15.308815-21.435455v-1.405457h-17.362686v1.657837h15.095291l-15.561188,21.722778v1.118164h18.333321v-1.657867H110.594734z"></path></g></svg>